<svg width="71" height="69" viewBox="0 0 71 69" fill="none" xmlns="http://www.w3.org/2000/svg">
<path fill-rule="evenodd" clip-rule="evenodd" d="M36.1126 1.40396L35.7892 1.223C32.6399 -0.465906 28.8284 -0.405587 25.7264 1.40396L4.67206 13.6856L4.38649 13.859C1.66243 15.58 0 18.5821 0 21.8197C0 25.1689 1.77905 28.2661 4.67206 29.9537L40.1398 50.6425L40.1399 50.6426C40.6325 50.9299 40.8788 51.0736 41.1496 51.0736C41.4206 51.0736 41.6669 50.9299 42.1594 50.6425L46.4832 48.12C47.1434 47.7348 47.4735 47.5422 47.4735 47.2545C47.4735 46.9667 47.1434 46.7741 46.4831 46.389L8.13414 24.0187L7.97122 23.9152C7.28577 23.4425 6.87108 22.6604 6.87108 21.8197C6.87108 20.9142 7.35202 20.0769 8.13414 19.6206L29.1884 7.33895L29.4056 7.22248C30.4334 6.71775 31.6522 6.75657 32.6505 7.33895L53.2634 19.3631L53.4565 19.4845C54.3975 20.1204 54.9679 21.1851 54.9679 22.3307V46.5022L54.9603 46.7301C54.8852 47.8633 54.2529 48.8925 53.2634 49.4697L32.6505 61.4939L32.4334 61.6104C31.4056 62.1151 30.1868 62.0763 29.1884 61.4939L8.57553 49.4697L8.38245 49.3483C7.44149 48.7124 6.87108 47.6477 6.87108 46.5022L6.87098 37.6897C6.87098 37.1278 6.87097 36.8469 6.73785 36.6151C6.60472 36.3834 6.36206 36.2418 5.87672 35.9587L1.5069 33.4096C0.837602 33.0192 0.502951 32.824 0.251476 32.9684C0 33.1129 0 33.5003 0 34.2751V46.5022L0.0057932 46.845C0.12299 50.3782 2.04607 53.6154 5.11344 55.4047L25.7264 67.4289L26.0497 67.6099C29.1991 69.2988 33.0105 69.2384 36.1126 67.4289L56.7255 55.4047L57.0188 55.2271C60.0116 53.3456 61.8389 50.0533 61.8389 46.5022V22.3307L61.8332 21.9878C61.716 18.4546 59.7929 15.2175 56.7255 13.4282L36.1126 1.40396ZM63.8765 56.6929C63.6056 56.6929 63.3593 56.8366 62.8667 57.124L58.543 59.6465C57.8827 60.0316 57.5526 60.2242 57.5526 60.512C57.5526 60.7997 57.8827 60.9923 58.543 61.3775L69.4931 67.7653C70.1624 68.1558 70.4971 68.351 70.7485 68.2066C71 68.0621 71 67.6747 71 66.8998V61.8412C71 61.2793 71 60.9984 70.8669 60.7666C70.7338 60.5348 70.4911 60.3933 70.0058 60.1101L64.8864 57.1239C64.3937 56.8365 64.1474 56.6929 63.8765 56.6929Z" fill="#EC9B3E"/>
</svg>
