<svg width="25" height="25" viewBox="0 0 25 25" fill="none" xmlns="http://www.w3.org/2000/svg">
<path fill-rule="evenodd" clip-rule="evenodd" d="M12.7157 0.494351L12.6018 0.430634C11.4929 -0.164051 10.1509 -0.142812 9.05857 0.494351L1.64509 4.81888L1.54454 4.87994C0.585362 5.4859 0 6.54297 0 7.68297C0 8.86228 0.626425 9.95284 1.64509 10.5471L13.5171 17.4722C13.9695 17.7361 14.1956 17.868 14.4435 17.8793C14.474 17.8806 14.5046 17.8806 14.5351 17.8793C14.783 17.868 15.0091 17.736 15.4614 17.4721C16.0659 17.1195 16.3681 16.9432 16.3914 16.6841C16.3941 16.654 16.3941 16.6238 16.3914 16.5937C16.3681 16.3346 16.0659 16.1583 15.4614 15.8057L2.86413 8.45728L2.80676 8.42084C2.56541 8.25439 2.41939 7.97903 2.41939 7.68297C2.41939 7.36415 2.58874 7.06931 2.86413 6.90867L10.2776 2.58414L10.3541 2.54312C10.716 2.3654 11.1451 2.37907 11.4967 2.58414L18.7547 6.81801L18.8227 6.86074C19.154 7.08465 19.3549 7.45955 19.3549 7.8629V16.374L19.3522 16.4543C19.3258 16.8533 19.1031 17.2157 18.7547 17.4189L11.4967 21.6528L11.4202 21.6938C11.0583 21.8715 10.6292 21.8578 10.2776 21.6528L3.01955 17.4189L2.95157 17.3762C2.62024 17.1523 2.41939 16.7774 2.41939 16.374L2.41937 13.9791C2.41936 13.458 2.41936 13.1974 2.30488 12.9781C2.29239 12.9542 2.27894 12.9308 2.26457 12.908C2.13287 12.6986 1.90779 12.5673 1.45762 12.3047C0.838508 11.9436 0.528951 11.763 0.289098 11.8761C0.264521 11.8876 0.24092 11.9012 0.218528 11.9166C0 12.0668 0 12.4252 0 13.1419V16.374L0.00203986 16.4947C0.0433063 17.7388 0.720445 18.8787 1.80051 19.5087L9.05857 23.7426L9.17244 23.8063C10.2814 24.401 11.6234 24.3797 12.7157 23.7426L19.9738 19.5087L20.077 19.4461C21.1308 18.7836 21.7742 17.6244 21.7742 16.374V7.8629L21.7722 7.74219C21.731 6.49811 21.0538 5.35826 19.9738 4.72822L12.7157 0.494351ZM22.4459 20.0667C22.1981 20.0779 21.9719 20.2099 21.5196 20.4738C20.9151 20.8264 20.6129 21.0027 20.5896 21.2618C20.5869 21.2919 20.5869 21.3221 20.5896 21.3522C20.6129 21.6113 20.9151 21.7876 21.5196 22.1402L23.5424 23.3203C24.1615 23.6814 24.471 23.862 24.7108 23.7489C24.7355 23.7373 24.7591 23.7238 24.7815 23.7083C25 23.5581 25 23.1998 25 22.4831C25 21.962 25 21.7015 24.8855 21.4822C24.873 21.4583 24.8596 21.4348 24.8452 21.4119C24.7135 21.2026 24.4884 21.0713 24.0383 20.8088L23.4639 20.4737C23.0116 20.2099 22.7854 20.0779 22.5376 20.0667C22.507 20.0653 22.4764 20.0653 22.4459 20.0667Z" fill="#EC9B3E"/>
</svg>
